<?xml version="1.0" encoding="UTF-8"?>
<svg id="Layer_1" xmlns="http://www.w3.org/2000/svg" version="1.1" viewBox="0 0 1080 1080">
  <!-- Generator: Adobe Illustrator 30.0.0, SVG Export Plug-In . SVG Version: 2.1.1 Build 123)  -->
  <defs>
    <style>
      .st0 {
        fill: #0b2b3d;
      }

      .st1 {
        fill: #c25f3c;
      }
    </style>
  </defs>
  <g>
    <path class="st1" d="M578.55,473.36h-46.36v-25.23h46.36c48.9,0,88.68-39.78,88.68-88.68s-39.78-88.68-88.68-88.68h-168.24v125.01h77.62v25.23h-102.85v-175.47h193.47c62.81,0,113.91,51.1,113.91,113.91s-51.1,113.91-113.91,113.91Z"/>
    <path class="st1" d="M577.27,420.44h-43.61v-25.23h43.61c19.82,0,35.95-16.13,35.95-35.95s-16.13-35.95-35.95-35.95h-114.91v62.7h-25.23v-87.93h140.14c33.73,0,61.18,27.45,61.18,61.18s-27.45,61.18-61.18,61.18Z"/>
    <path class="st1" d="M412.01,588.55h-25.23v-78.16c0-34.33,27.93-62.27,62.27-62.27h38.89v25.23h-38.89c-20.42,0-37.04,16.62-37.04,37.04v78.16Z"/>
    <path class="st1" d="M622.07,588.37h-183.18v-106.34h25.23v81.11h157.95c20.53,0,37.9-13.77,43.37-32.55h-168.31v-179.46h25.23v154.23h170.11v12.61c0,38.81-31.58,70.39-70.39,70.39Z"/>
  </g>
  <g>
    <path class="st0" d="M128.85,668.81h30.01c17.83,0,28.93,10.11,28.93,25.45v.22c0,16.96-13.59,25.99-30.45,25.99h-15.12v24.47h-13.38v-76.12ZM157.78,708.39c10.11,0,16.42-5.65,16.42-13.59v-.22c0-9.03-6.42-13.59-16.42-13.59h-15.55v27.4h15.55Z"/>
    <path class="st0" d="M217.04,668.26h12.4l33.49,76.66h-14.14l-7.72-18.38h-35.99l-7.83,18.38h-13.7l33.49-76.66ZM236.18,714.7l-13.16-30.45-13.05,30.45h26.21Z"/>
    <path class="st0" d="M272.18,668.81h33.93c9.57,0,17.07,2.83,21.97,7.61,4.02,4.24,6.31,9.79,6.31,16.42v.22c0,12.51-7.5,20.01-18.05,23.05l20.55,28.82h-15.88l-18.7-26.53h-16.75v26.53h-13.38v-76.12ZM305.13,706.54c9.57,0,15.66-4.89,15.66-12.72v-.22c0-8.26-5.76-12.61-15.77-12.61h-19.47v25.56h19.57Z"/>
    <path class="st0" d="M373.97,668.26h12.4l33.49,76.66h-14.14l-7.72-18.38h-35.99l-7.83,18.38h-13.7l33.49-76.66ZM393.11,714.7l-13.16-30.45-13.05,30.45h26.21Z"/>
    <path class="st0" d="M420.95,707.09v-.22c0-21.31,16.2-39.37,39.26-39.37,13.16,0,21.42,3.7,29.25,10.33l-8.48,10.11c-5.87-5-11.74-8.05-21.31-8.05-13.92,0-24.68,12.18-24.68,26.75v.22c0,15.66,10.33,27.19,25.88,27.19,7.29,0,13.7-2.28,18.38-5.76v-14.14h-19.47v-11.74h32.41v31.97c-7.61,6.42-18.27,11.85-31.75,11.85-23.81,0-39.47-16.96-39.47-39.15Z"/>
    <path class="st0" d="M502.4,707.09v-.22c0-21.31,16.53-39.37,39.91-39.37s39.69,17.73,39.69,39.15v.22c0,21.31-16.53,39.37-39.91,39.37s-39.69-17.73-39.69-39.15ZM567.97,707.09v-.22c0-14.79-10.66-26.97-25.88-26.97s-25.66,11.96-25.66,26.75v.22c0,14.79,10.66,26.97,25.88,26.97s25.66-11.96,25.66-26.75Z"/>
    <path class="st0" d="M594.4,668.81h12.4l40.78,52.63v-52.63h13.16v76.12h-11.2l-41.98-54.15v54.15h-13.16v-76.12Z"/>
    <path class="st0" d="M705.32,668.81h13.38v63.94h40.02v12.18h-53.39v-76.12Z"/>
    <path class="st0" d="M795.69,668.26h12.4l33.49,76.66h-14.14l-7.72-18.38h-35.99l-7.83,18.38h-13.7l33.49-76.66ZM814.83,714.7l-13.16-30.45-13.05,30.45h26.21Z"/>
    <path class="st0" d="M835.17,668.81h14.46l18.16,56.44,18.7-56.66h11.31l18.7,56.66,18.16-56.44h14.03l-26.43,76.66h-11.64l-18.7-54.7-18.7,54.7h-11.64l-26.42-76.66Z"/>
  </g>
</svg>